<svg viewBox="0 0 120 120" fill="none" xmlns="http://www.w3.org/2000/svg">
<g clip-path="url(#clip0_13279_8466)">
<path d="M89.9751 91.3623C89.9751 92.1998 90.1376 93.1373 90.4751 93.8998L91.8001 96.9248C92.0001 97.2373 92.3376 97.3873 92.6626 97.3748C92.9876 97.3748 93.3251 97.2373 93.5251 96.9248L94.8501 93.8998C95.1876 93.1373 95.3501 92.1998 95.3501 91.3623H89.9751Z" fill="#9490A5"/>
<path d="M71.2627 105.15H67.8877V107.2H71.2627V105.15Z" fill="#005DA9"/>
<path d="M71.2627 107.188H67.8877V114.7H71.2627V107.188Z" fill="#5FBFED"/>
<path d="M83.2127 105.138H27.3252V23.75H83.2127C84.3127 24.85 84.9252 25.4625 86.0252 26.55V102.337C84.9252 103.437 84.3127 104.05 83.2127 105.138Z" fill="#3B3887"/>
<path d="M72.7376 23.75H69.7876V105.137H72.7376V23.75Z" fill="#5FBFED"/>
<path d="M95.3501 57.9502H89.9751V91.3627H95.3501V57.9502Z" fill="#E73446"/>
<path d="M95.3501 89.9751H89.9751V91.3626H95.3501V89.9751Z" fill="#1F2951"/>
<path d="M32.9502 23.75H27.3252V105.137H32.9502V23.75Z" fill="#4B4691"/>
<path d="M55.3749 48.0623C54.5624 47.5998 54.1124 47.3373 53.2999 46.8623L52.9999 46.9373L62.8499 83.7123C62.4624 84.3873 62.2499 84.7623 61.8624 85.4373L34.7749 92.6998L34.8374 92.9498C35.6499 93.4123 36.0999 93.6748 36.9124 94.1498L64.0124 86.8873C64.4749 86.0748 64.7374 85.6248 65.2124 84.8123L55.3624 48.0748L55.3749 48.0623Z" fill="#1F2951"/>
<path d="M62.8625 83.725L53.0125 46.95L52.875 46.425C52.2 46.0375 51.825 45.825 51.15 45.4375L23.4875 52.85C23.1 53.525 22.8875 53.9 22.5 54.5625L32.4875 91.8625C33.1625 92.25 33.5375 92.4625 34.2125 92.85L34.7875 92.7L61.875 85.4375C62.2625 84.7625 62.475 84.3875 62.8625 83.7125" fill="white"/>
<path d="M49.9647 50.2669L26.9395 56.4365L28.6962 62.9927L51.7214 56.8231L49.9647 50.2669Z" fill="#ADDAF6"/>
<path d="M38.85 82.8126L35.0375 83.8376C34.8125 83.9001 34.575 83.7626 34.525 83.5376L33.8125 80.8876C33.75 80.6626 33.8875 80.4251 34.1125 80.3751L37.925 79.3501C38.15 79.2876 38.375 79.4251 38.4375 79.6501L39.15 82.3001C39.2125 82.5251 39.075 82.7626 38.85 82.8126Z" fill="#B0CAD3"/>
<path d="M44.6874 81.2501L40.8749 82.2751C40.6499 82.3376 40.4124 82.2001 40.3624 81.9751L39.6499 79.3251C39.5874 79.1001 39.7249 78.8626 39.9499 78.8126L43.7624 77.7876C43.9874 77.7251 44.2249 77.8626 44.2749 78.0876L44.9874 80.7376C45.0499 80.9626 44.9124 81.2001 44.6874 81.2501Z" fill="#B0CAD3"/>
<path d="M50.5126 79.6876L46.7001 80.7126C46.4751 80.7751 46.2501 80.6376 46.1876 80.4126L45.4751 77.7626C45.4126 77.5376 45.5501 77.3001 45.7751 77.2501L49.5876 76.2251C49.8126 76.1626 50.0501 76.3001 50.1001 76.5251L50.8126 79.1751C50.8751 79.4001 50.7376 79.6376 50.5126 79.6876Z" fill="#B0CAD3"/>
<path d="M37.6 78.1373L33.7875 79.1623C33.5625 79.2248 33.325 79.0873 33.275 78.8623L32.5625 76.2123C32.5 75.9873 32.6375 75.7498 32.8625 75.6998L36.675 74.6748C36.9 74.6123 37.125 74.7498 37.1875 74.9748L37.9 77.6248C37.9625 77.8498 37.825 78.0873 37.6 78.1373Z" fill="#B0CAD3"/>
<path d="M43.4252 76.5748L39.6127 77.5998C39.3877 77.6623 39.1502 77.5248 39.1002 77.2998L38.3877 74.6498C38.3252 74.4248 38.4627 74.1873 38.6877 74.1373L42.5002 73.1123C42.7252 73.0498 42.9502 73.1873 43.0127 73.4123L43.7252 76.0623C43.7877 76.2873 43.6502 76.5248 43.4252 76.5748Z" fill="#B0CAD3"/>
<path d="M49.2626 75.0123L45.4501 76.0373C45.2251 76.0998 45.0001 75.9623 44.9376 75.7373L44.2251 73.0873C44.1626 72.8623 44.3001 72.6248 44.5251 72.5748L48.3376 71.5498C48.5626 71.4873 48.8001 71.6248 48.8501 71.8498L49.5626 74.4998C49.6251 74.7248 49.4876 74.9623 49.2626 75.0123Z" fill="#B0CAD3"/>
<path d="M36.35 73.4625L32.5375 74.4875C32.3125 74.55 32.075 74.4125 32.025 74.1875L31.3125 71.5375C31.25 71.3125 31.3875 71.075 31.6125 71.025L35.425 70C35.65 69.9375 35.875 70.075 35.9375 70.3L36.65 72.95C36.7125 73.175 36.575 73.4125 36.35 73.4625Z" fill="#B0CAD3"/>
<path d="M42.1752 71.9127L38.3627 72.9377C38.1377 73.0002 37.9002 72.8627 37.8502 72.6377L37.1377 69.9877C37.0752 69.7627 37.2127 69.5252 37.4377 69.4752L41.2502 68.4502C41.4752 68.3877 41.7002 68.5252 41.7627 68.7502L42.4752 71.4002C42.5377 71.6252 42.4002 71.8627 42.1752 71.9127Z" fill="#B0CAD3"/>
<path d="M48.0126 70.3502L44.2001 71.3752C43.9751 71.4377 43.7501 71.3002 43.6876 71.0752L42.9751 68.4252C42.9126 68.2002 43.0501 67.9627 43.2751 67.9127L47.0876 66.8877C47.3126 66.8252 47.5501 66.9627 47.6001 67.1877L48.3126 69.8377C48.3751 70.0627 48.2376 70.3002 48.0126 70.3502Z" fill="#B0CAD3"/>
<path d="M45.9377 85.9127L36.3002 88.5002C36.0752 88.5627 35.8377 88.4252 35.7877 88.2002L35.0752 85.5502C35.0127 85.3252 35.1502 85.1002 35.3752 85.0377L45.0127 82.4502C45.2377 82.3877 45.4752 82.5252 45.5252 82.7502L46.2377 85.4002C46.3002 85.6252 46.1627 85.8627 45.9377 85.9127Z" fill="#B0CAD3"/>
<path d="M51.7626 84.3502L47.9501 85.3752C47.7251 85.4377 47.5001 85.3002 47.4376 85.0752L46.7251 82.4252C46.6626 82.2002 46.8001 81.9627 47.0251 81.9127L50.8376 80.8877C51.0626 80.8252 51.3001 80.9627 51.3501 81.1877L52.0626 83.8377C52.1251 84.0627 51.9876 84.3002 51.7626 84.3502Z" fill="#B0CAD3"/>
<path d="M55.0873 73.4498L51.2748 74.4748C51.0498 74.5373 50.8248 74.3998 50.7623 74.1748L50.0498 71.5248C49.9873 71.2998 50.1248 71.0623 50.3498 71.0123L54.1623 69.9873C54.3873 69.9248 54.6248 70.0623 54.6748 70.2873L55.3873 72.9373C55.4498 73.1623 55.3123 73.3998 55.0873 73.4498Z" fill="#B0CAD3"/>
<path d="M53.8373 68.7877L50.0248 69.8127C49.7998 69.8752 49.5748 69.7377 49.5123 69.5127L48.7998 66.8627C48.7373 66.6377 48.8748 66.4002 49.0998 66.3502L52.9123 65.3252C53.1373 65.2627 53.3748 65.4002 53.4248 65.6252L54.1373 68.2752C54.1998 68.5002 54.0623 68.7377 53.8373 68.7877Z" fill="#B0CAD3"/>
<path d="M35.1249 68.8751L31.3124 69.9001C31.0874 69.9626 30.8499 69.8251 30.7999 69.6001L30.0874 66.9501C30.0249 66.7251 30.1624 66.4876 30.3874 66.4376L34.1999 65.4126C34.4249 65.3501 34.6499 65.4876 34.7124 65.7126L35.4249 68.3626C35.4874 68.5876 35.3499 68.8251 35.1249 68.8751Z" fill="#555675"/>
<path d="M40.9501 67.3126L37.1376 68.3376C36.9126 68.4001 36.6751 68.2626 36.6251 68.0376L35.9126 65.3876C35.8501 65.1626 35.9876 64.9251 36.2126 64.8751L40.0251 63.8501C40.2501 63.7876 40.4751 63.9251 40.5376 64.1501L41.2501 66.8001C41.3126 67.0251 41.1751 67.2626 40.9501 67.3126Z" fill="#555675"/>
<path d="M46.7748 65.7623L42.9623 66.7873C42.7373 66.8498 42.4998 66.7123 42.4498 66.4873L41.7373 63.8373C41.6748 63.6123 41.8123 63.3748 42.0373 63.3248L45.8498 62.2998C46.0748 62.2373 46.3123 62.3748 46.3623 62.5998L47.0748 65.2498C47.1373 65.4748 46.9998 65.7123 46.7748 65.7623" fill="#555675"/>
<path d="M52.6 64.1998L48.7875 65.2248C48.5625 65.2873 48.3375 65.1498 48.275 64.9248L47.5625 62.2748C47.5 62.0498 47.6375 61.8123 47.8625 61.7623L51.675 60.7373C51.9 60.6748 52.1375 60.8123 52.1875 61.0373L52.9 63.6873C52.9625 63.9123 52.825 64.1498 52.6 64.1998" fill="#555675"/>
<path d="M57.5873 82.7874L53.7748 83.8124C53.5498 83.8749 53.3248 83.7374 53.2623 83.5124L51.2998 76.1874C51.2373 75.9624 51.3748 75.7249 51.5998 75.6749L55.4123 74.6499C55.6373 74.5874 55.8748 74.7249 55.9248 74.9499L57.8873 82.2749C57.9498 82.4999 57.8123 82.7374 57.5873 82.7874Z" fill="#E73446"/>
<path d="M96.9627 51.2373H95.7002V57.9498H96.3252V51.8748H96.7002L97.2377 52.4123V66.5998C97.2377 67.0373 97.0752 67.3873 96.8127 67.6123C96.7377 67.2748 96.4377 67.0123 96.0877 67.0123C95.6752 67.0123 95.3377 67.3498 95.3252 67.7623C95.3252 68.1748 95.6502 68.4998 96.0502 68.5123H96.0627C97.0877 68.5123 97.8377 67.6998 97.8377 66.5998V52.1498L96.9252 51.2373H96.9627Z" fill="#9490A5"/>
<path d="M95.7126 51.2373H95.3501V49.9998C95.3501 48.5123 94.1626 47.3123 92.6751 47.2998C91.1876 47.2998 89.9876 48.4873 89.9751 49.9623V57.9498H95.3501H95.7126V51.2373Z" fill="#1F2951"/>
</g>
<defs>
<clipPath id="clip0_13279_8466">
<rect width="75.375" height="90.95" fill="white" transform="translate(22.5 23.75)"/>
</clipPath>
</defs>
</svg>
