<svg width="96" height="96" viewBox="0 0 96 96" fill="none" xmlns="http://www.w3.org/2000/svg">
<g clip-path="url(#clip0_1533_96350)">
<path d="M12.378 19L9.65944 21.7188V67.6099H86.3406V21.7188L83.622 19H12.378Z" fill="#1F2951"/>
<path d="M1 73.5866L4.32784 76.317H91.6721L95 73.5866V67.6099H1V73.5866Z" fill="#9490A5"/>
<path d="M72.6659 25.6329H23.3458V63.7779H72.6659V25.6329Z" fill="white"/>
<path d="M72.6542 25.6329H23.3341V24.8008L24.6465 23.5001H71.3535L72.6542 24.8008V25.6329Z" fill="#005DA9"/>
<path d="M67.2289 44.0901H28.8883V45.2034H67.2289V44.0901Z" fill="#B0CAD3"/>
<path d="M67.2289 46.1292H28.8883V47.2425H67.2289V46.1292Z" fill="#B0CAD3"/>
<path d="M67.2406 48.18H28.8883V49.2933H67.2406V48.18Z" fill="#B0CAD3"/>
<path d="M67.2406 50.2777H28.8883V51.391H67.2406V50.2777Z" fill="#B0CAD3"/>
<path d="M44.8362 52.3754H28.8883V53.4887H44.8362V52.3754Z" fill="#B0CAD3"/>
<path d="M68.0843 59.9106L65.5415 57.3676L67.2992 55.6098L63.6198 54.6137L59.9287 53.6293L61.909 61.0005L63.6667 59.2426L66.2094 61.7856L68.0843 59.9106Z" fill="#1F2951"/>
<path d="M31.9935 39.4026H36.4346V34.9611L31.9935 39.4026Z" fill="#1F2951"/>
<path d="M30.892 28.7384L28.8883 30.7423H37.5477V39.4026L39.5398 37.3987V28.7384H30.892Z" fill="#E73446"/>
<path d="M33.3293 31.8439H28.8883V36.2854L33.3293 31.8439Z" fill="#1F2951"/>
<path d="M36.4346 31.8439H34.8878L28.8883 37.844V39.4026H30.4468L36.4346 33.4025V31.8439Z" fill="#E73446"/>
</g>
<defs>
<clipPath id="clip0_1533_96350">
<rect width="94" height="57.3171" fill="white" transform="translate(1 19)"/>
</clipPath>
</defs>
</svg>
