<svg viewBox="0 0 120 120" fill="none" xmlns="http://www.w3.org/2000/svg">
<g clip-path="url(#clip0_13279_8353)">
<path d="M81.2722 49.6011H29.231V87.6961H81.2722V49.6011Z" fill="#EDE9DA"/>
<path d="M72.4415 31.7153H66.1842H44.3328H38.0614L27.7544 42.0383H44.3328H66.1842H82.7626L72.4415 31.7153Z" fill="#497889"/>
<path d="M74.2975 61.9238H62.6406V81.6544H74.2975V61.9238Z" fill="#555675"/>
<path d="M72.3571 64.2334H64.5952V71.7257H72.3571V64.2334Z" fill="#ADDAF6"/>
<path d="M36.9084 55.9806L32.3243 60.1493L27.7544 55.9806V47.1646H36.9084V55.9806Z" fill="white"/>
<path d="M55.2019 55.9806L50.632 60.1493L46.062 55.9806V47.1646H55.2019V55.9806Z" fill="white"/>
<path d="M46.0622 55.9806L41.4782 60.1493L36.9082 55.9806V47.1646H46.0622V55.9806Z" fill="#56BAA2"/>
<path d="M64.3561 55.9806L59.7862 60.1493L55.2021 55.9806V47.1646H64.3561V55.9806Z" fill="#56BAA2"/>
<path d="M82.6642 55.9806L78.0802 60.1493L73.5103 55.9806V47.1646H82.6642V55.9806Z" fill="#56BAA2"/>
<path d="M73.5099 55.9806L68.94 60.1493L64.356 55.9806V47.1646H73.5099V55.9806Z" fill="white"/>
<path d="M82.7485 42.0386H27.7544V47.1649H82.7485V42.0386Z" fill="#0A5F71"/>
<path d="M54.9631 61.9238H37.302L34.9678 64.2616V81.6544H57.2973V64.2616L54.9631 61.9238Z" fill="#ADDAF6"/>
<path d="M86.6577 98.3009L108.593 93.8787V63.5576L77.2646 78.3168L86.6577 98.3009Z" fill="#0A5F71"/>
<path d="M77.2642 78.3167L68.1243 78.2886L68.0962 78.3167H45.7808C43.6856 78.3308 41.8014 79.6406 41.0702 81.5981C40.5218 83.0628 40.6905 84.6119 41.3936 85.8513L23.381 79.9786C21.1874 78.866 18.5157 79.4997 17.0252 81.4573C15.1832 83.8937 15.8862 87.4004 18.5298 88.9355L30.9038 96.1179L36.683 99.188L47.3275 104.849C48.1009 105.258 48.9165 105.61 49.732 105.906L49.8023 105.948C52.7833 106.99 56.0175 107.272 59.1672 106.708L86.6291 98.2867L77.2502 78.3027L77.2642 78.3167Z" fill="#FACCC0"/>
<path d="M71.6397 75.3453C71.035 75.3453 70.5288 74.8523 70.5288 74.2327C70.5288 73.613 71.021 73.1201 71.6397 73.1201C72.2584 73.1201 72.7505 73.613 72.7505 74.2327C72.7505 74.8523 72.2584 75.3453 71.6397 75.3453Z" fill="#FAB522"/>
</g>
<defs>
<clipPath id="clip0_13279_8353">
<rect width="120" height="120" fill="white"/>
</clipPath>
</defs>
</svg>
