<svg viewBox="0 0 120 120" fill="none" xmlns="http://www.w3.org/2000/svg">
<g clip-path="url(#clip0_13279_4018)">
<path d="M34.3523 70.144L41.9375 77.0831L50.1062 70.4645C50.7383 69.9517 51.1111 69.1825 51.1111 68.3812V63.7979C50.6411 64.3267 50.1548 64.8235 49.6362 65.2722C47.4157 67.2273 44.7739 68.4773 42.2941 68.4773C39.8143 68.4773 37.1562 67.2273 34.9357 65.2722C34.4171 64.8235 33.9309 64.3267 33.4771 63.8139V68.1889C33.4771 68.9421 33.8012 69.6632 34.3523 70.1761" fill="#7B381D"/>
<path d="M56.6056 47.5642C56.5732 47.8687 56.5246 48.1572 56.4922 48.4617C56.3301 49.5354 55.5197 50.9777 54.9848 51.8591C54.839 52.0835 54.4824 51.9873 54.4824 51.7149V45.8976C54.4824 45.0642 54.45 44.2469 54.3527 43.4136C54.1744 41.8591 53.8179 40.7533 52.4888 39.4553C51.4353 38.4296 49.3445 37.6123 47.8696 37.6123H36.7349C35.26 37.6123 33.1692 38.4296 32.1157 39.4553C30.7704 40.7694 30.4301 41.8591 30.2518 43.4136C30.1546 44.2309 30.1221 45.0642 30.1221 45.8976V51.7149C30.1221 51.9873 29.7656 52.0835 29.6197 51.8591C29.0686 50.9937 28.2582 49.5514 28.0962 48.4617C28.0475 48.1572 28.0151 47.8527 27.9827 47.5642C27.0913 48.2854 26.5078 49.5995 26.5078 51.0899C26.5078 53.3655 27.8693 55.2085 29.5549 55.2085C29.6359 55.2085 29.7169 55.2085 29.798 55.2085C29.9114 58.3014 31.3863 61.3783 33.5096 63.7982C35.9569 66.5867 39.2633 68.4777 42.3266 68.4777C45.3898 68.4777 48.6962 66.5867 51.1436 63.7982C53.2668 61.3944 54.7417 58.3174 54.8552 55.2085C54.9362 55.2085 55.0172 55.2085 55.0983 55.2085C56.7839 55.2085 58.1453 53.3655 58.1453 51.0899C58.1453 49.5995 57.5457 48.2854 56.6704 47.5642" fill="#8D4D32"/>
<path d="M29.587 51.8591C29.7329 52.0835 30.0895 51.9873 30.0895 51.7149V45.8976C30.0895 45.0643 30.1219 44.2469 30.2191 43.4136C30.3974 41.8591 30.754 40.7534 32.083 39.4553C33.1365 38.4296 35.2273 37.6123 36.7022 37.6123H47.8369C49.3118 37.6123 51.4026 38.4296 52.4562 39.4553C53.8014 40.7694 54.1418 41.8591 54.32 43.4136C54.4173 44.2309 54.4497 45.0643 54.4497 45.8976V51.7149C54.4497 51.9873 54.8063 52.0835 54.9521 51.8591C55.5032 50.9937 56.3136 49.5514 56.4757 48.4617C56.5243 48.1572 56.5567 47.8527 56.5891 47.5643C57.8209 37.2437 52.9262 29.4713 43.007 29.1348H41.5483C31.6292 29.4713 26.7344 37.2437 27.95 47.5643C27.9824 47.8687 28.0311 48.1572 28.0635 48.4617C28.2256 49.5514 29.036 50.9777 29.587 51.8591" fill="#1F2951"/>
<path d="M115.569 84.7919C115.31 80.1925 112.247 76.1861 108.438 73.7021C107.4 73.0291 106.282 72.5002 105.131 72.0996C104.353 71.8271 103.543 71.6188 102.733 71.4425L90.9009 69.0707V72.9329C86.6707 76.7791 80.4469 76.7791 76.2167 72.9329V68.8784L66.2327 71.3784L63.9636 71.9393C63.0074 72.1797 62.0673 72.5002 61.1597 72.8848C60.0414 73.3656 58.9716 73.9746 57.9992 74.7278C54.7738 77.1957 52.1968 80.7855 51.8726 84.9041L50.8516 99.9842H116.234L115.553 84.7759L115.569 84.7919Z" fill="#56BAA2"/>
<path d="M76.2168 72.9325C80.447 76.7787 86.6708 76.7787 90.901 72.9325V65.5928C89.6854 66.8748 88.2592 67.8844 86.7842 68.5255C85.7307 68.9742 84.6286 69.2306 83.5589 69.2306C82.4892 69.2306 81.3222 68.9582 80.2363 68.4774C78.7938 67.8364 77.4162 66.8428 76.2168 65.5928V72.9325V72.9325Z" fill="#E4B888"/>
<path d="M94.872 52.5478C93.3647 52.9164 91.8087 53.0607 90.3987 53.0607C79.2477 53.0607 77.5297 45.2882 77.0111 40.8491C77.0111 40.8491 74.353 47.644 72.1812 51.2337L72.3756 56.7466C72.3756 59.9837 73.964 63.2369 76.2331 65.6087C78.3239 67.8042 81.0144 69.2466 83.5752 69.2466C86.136 69.2466 88.8103 67.8042 90.9173 65.6087C93.1864 63.2369 94.7748 59.9837 94.7748 56.7466L94.8882 52.5639L94.872 52.5478Z" fill="#E7C199"/>
<path d="M51.0948 65.3525V68.3653C51.0948 69.1666 50.7221 69.9358 50.1062 70.4487L41.9375 77.0672L34.3522 70.1281C33.8012 69.6153 33.477 68.8942 33.477 68.141V65.2563C18.89 65.7692 6.78285 76.8429 5 99.9999H50.8679L51.889 84.9198C52.2132 80.8012 54.7902 77.2115 58.0156 74.7435C58.988 74.0063 60.0577 73.3974 61.1761 72.9006C61.2733 71.4102 61.7271 70.016 62.4565 68.798C58.9718 66.8429 55.1468 65.7051 51.0948 65.3525" fill="#005DA9"/>
<path d="M101.549 66.2981L99.6693 42.9487C99.6693 34.8077 92.8782 28.75 84.4988 28.75C78.3075 28.75 72.9751 32.2276 70.625 37.2115C68.21 39.2628 66.6055 42.1955 66.2975 45.4968L64.7578 66.2019C63.8177 66.9071 63.0398 67.7885 62.4401 68.7981C61.7107 70.016 61.2569 71.4103 61.1597 72.9006C62.0673 72.516 63.0074 72.1955 63.9636 71.9551L76.2167 68.8782V65.593C73.9476 63.2212 72.3592 59.9679 72.3592 56.7308L72.1647 51.218C74.3366 47.6282 76.9946 40.8333 76.9946 40.8333C77.5133 45.2724 79.2313 53.0449 90.3822 53.0449C91.8085 53.0449 93.3483 52.9006 94.8556 52.5321L94.7421 56.7147C94.7421 59.9519 93.1538 63.2051 90.8847 65.5769V69.0545L102.716 71.4263C103.527 71.5865 104.337 71.8109 105.115 72.0833C104.451 69.8397 103.203 67.8526 101.549 66.2981" fill="#3B3887"/>
</g>
<defs>
<clipPath id="clip0_13279_4018">
<rect width="111.25" height="71.25" fill="white" transform="translate(5 28.75)"/>
</clipPath>
</defs>
</svg>
